<?xml version="1.0" encoding="utf-8"?>
<!-- Generator: Adobe Illustrator 28.6.0, SVG Export Plug-In . SVG Version: 9.03 Build 54939)  -->
<svg version="1.0" id="Layer_1" xmlns="http://www.w3.org/2000/svg" xmlns:xlink="http://www.w3.org/1999/xlink" x="0px" y="0px"
	 width="216.08632px" height="369.45541px" viewBox="0 0 216.08632 369.45541"
	 style="enable-background:new 0 0 216.08632 369.45541;" xml:space="preserve">
<style type="text/css">
	.st0{fill:#991E20;}
	.st1{fill:#DDDDDD;}
</style>
<g>
	<g>
		<polygon class="st0" points="19.10314,76.31541 0,142.14932 30.46204,142.14932 49.56726,76.31541 		"/>
		<polygon class="st1" points="214.01964,52.46496 123.14522,52.46496 123.14522,26.16367 196.13071,26.16367 198.27133,18.79597 
			123.14522,18.79597 123.14522,0 92.42278,9.76816 92.42278,18.79597 17.29666,18.79597 17.29666,26.16367 92.42278,26.16367 
			92.42278,52.46496 1.54835,52.46496 1.54835,59.79312 59.63612,59.79312 45.43616,158.41368 75.90048,158.41368 
			90.35837,59.79312 130.63113,59.79312 130.63113,151.05244 114.62471,151.05244 114.62471,158.41368 161.09546,158.41368 
			161.09546,59.79312 211.84631,59.79312 		"/>
		<polygon class="st1" points="170.64807,76.31541 185.62201,142.14932 216.08632,142.14932 201.1122,76.31541 		"/>
	</g>
	<polygon class="st1" points="172.84477,214.42906 172.84477,354.73294 122.24312,354.73294 122.24312,203.66985 
		92.29485,213.14948 92.29485,354.73294 42.72759,354.73294 42.72759,214.42241 13.29558,223.68402 13.29558,362.09418 
		172.84477,362.09418 172.84477,369.45541 202.79076,369.45541 202.79076,362.09418 202.79076,223.9659 	"/>
</g>
</svg>
